<?xml version="1.0" encoding="us-ascii" standalone="no"?><svg xmlns="http://www.w3.org/2000/svg" xmlns:xlink="http://www.w3.org/1999/xlink" contentStyleType="text/css" height="624px" preserveAspectRatio="none" style="width:499px;height:624px;background:#FFFFFF;" version="1.1" viewBox="0 0 499 624" width="499px" zoomAndPan="magnify"><defs/><g><rect fill="none" height="179.6016" style="stroke:#000000;stroke-width:1.5;" width="274" x="10" y="82.4297"/><rect fill="none" height="90.2031" style="stroke:#000000;stroke-width:1.5;" width="254" x="20" y="164.8281"/><rect fill="none" height="179.6016" style="stroke:#000000;stroke-width:1.5;" width="483.5" x="10" y="276.0313"/><rect fill="none" height="90.2031" style="stroke:#000000;stroke-width:1.5;" width="463.5" x="20" y="358.4297"/><line style="stroke:#181818;stroke-width:0.5;stroke-dasharray:5.0,5.0;" x1="76" x2="76" y1="36.2969" y2="589.1641"/><line style="stroke:#181818;stroke-width:0.5;stroke-dasharray:5.0,5.0;" x1="241" x2="241" y1="36.2969" y2="589.1641"/><line style="stroke:#181818;stroke-width:0.5;stroke-dasharray:5.0,5.0;" x1="414.5" x2="414.5" y1="36.2969" y2="589.1641"/><rect fill="#E2E2F0" height="30.2969" rx="2.5" ry="2.5" style="stroke:#181818;stroke-width:0.5;" width="93" x="30" y="5"/><text fill="#000000" font-family="sans-serif" font-size="14" lengthAdjust="spacing" textLength="79" x="37" y="24.9951">CUSTOMER</text><rect fill="#E2E2F0" height="30.2969" rx="2.5" ry="2.5" style="stroke:#181818;stroke-width:0.5;" width="93" x="30" y="588.1641"/><text fill="#000000" font-family="sans-serif" font-size="14" lengthAdjust="spacing" textLength="79" x="37" y="608.1592">CUSTOMER</text><rect fill="#E2E2F0" height="30.2969" rx="2.5" ry="2.5" style="stroke:#181818;stroke-width:0.5;" width="45" x="219" y="5"/><text fill="#000000" font-family="sans-serif" font-size="14" lengthAdjust="spacing" textLength="31" x="226" y="24.9951">ATM</text><rect fill="#E2E2F0" height="30.2969" rx="2.5" ry="2.5" style="stroke:#181818;stroke-width:0.5;" width="45" x="219" y="588.1641"/><text fill="#000000" font-family="sans-serif" font-size="14" lengthAdjust="spacing" textLength="31" x="226" y="608.1592">ATM</text><rect fill="#E2E2F0" height="30.2969" rx="2.5" ry="2.5" style="stroke:#181818;stroke-width:0.5;" width="118" x="355.5" y="5"/><text fill="#000000" font-family="sans-serif" font-size="14" lengthAdjust="spacing" textLength="104" x="362.5" y="24.9951">BANK_SERVER</text><rect fill="#E2E2F0" height="30.2969" rx="2.5" ry="2.5" style="stroke:#181818;stroke-width:0.5;" width="118" x="355.5" y="588.1641"/><text fill="#000000" font-family="sans-serif" font-size="14" lengthAdjust="spacing" textLength="104" x="362.5" y="608.1592">BANK_SERVER</text><polygon fill="#181818" points="229.5,63.4297,239.5,67.4297,229.5,71.4297,233.5,67.4297" style="stroke:#181818;stroke-width:1.0;"/><line style="stroke:#181818;stroke-width:1.0;stroke-dasharray:2.0,2.0;" x1="76.5" x2="235.5" y1="67.4297" y2="67.4297"/><text fill="#000000" font-family="sans-serif" font-size="13" lengthAdjust="spacing" textLength="70" x="83.5" y="62.3638">Insert Card</text><path d="M10,82.4297 L88,82.4297 L88,89.5625 L78,99.5625 L10,99.5625 L10,82.4297 " fill="#EEEEEE" style="stroke:#000000;stroke-width:1.5;"/><rect fill="none" height="179.6016" style="stroke:#000000;stroke-width:1.5;" width="274" x="10" y="82.4297"/><text fill="#000000" font-family="sans-serif" font-size="13" font-weight="bold" lengthAdjust="spacing" textLength="33" x="25" y="95.4966">loop</text><text fill="#000000" font-family="sans-serif" font-size="11" font-weight="bold" lengthAdjust="spacing" textLength="164" x="103" y="94.6401">[until valid PIN provided]</text><polygon fill="#181818" points="87.5,116.6953,77.5,120.6953,87.5,124.6953,83.5,120.6953" style="stroke:#181818;stroke-width:1.0;"/><line style="stroke:#181818;stroke-width:1.0;stroke-dasharray:2.0,2.0;" x1="81.5" x2="240.5" y1="120.6953" y2="120.6953"/><text fill="#000000" font-family="sans-serif" font-size="13" lengthAdjust="spacing" textLength="77" x="93.5" y="115.6294">Request PIN</text><polygon fill="#181818" points="229.5,145.8281,239.5,149.8281,229.5,153.8281,233.5,149.8281" style="stroke:#181818;stroke-width:1.0;"/><line style="stroke:#181818;stroke-width:1.0;stroke-dasharray:2.0,2.0;" x1="76.5" x2="235.5" y1="149.8281" y2="149.8281"/><text fill="#000000" font-family="sans-serif" font-size="13" lengthAdjust="spacing" textLength="58" x="83.5" y="144.7622">Enter PIN</text><path d="M20,164.8281 L86,164.8281 L86,171.9609 L76,181.9609 L20,181.9609 L20,164.8281 " fill="#EEEEEE" style="stroke:#000000;stroke-width:1.5;"/><rect fill="none" height="90.2031" style="stroke:#000000;stroke-width:1.5;" width="254" x="20" y="164.8281"/><text fill="#000000" font-family="sans-serif" font-size="13" font-weight="bold" lengthAdjust="spacing" textLength="21" x="35" y="177.895">alt</text><text fill="#000000" font-family="sans-serif" font-size="11" font-weight="bold" lengthAdjust="spacing" textLength="69" x="101" y="177.0386">[Valid PIN]</text><polygon fill="#181818" points="87.5,199.0938,77.5,203.0938,87.5,207.0938,83.5,203.0938" style="stroke:#181818;stroke-width:1.0;"/><line style="stroke:#181818;stroke-width:1.0;stroke-dasharray:2.0,2.0;" x1="81.5" x2="240.5" y1="203.0938" y2="203.0938"/><text fill="#000000" font-family="sans-serif" font-size="13" lengthAdjust="spacing" textLength="84" x="93.5" y="198.0278">PIN Accepted</text><line style="stroke:#000000;stroke-width:1.0;stroke-dasharray:2.0,2.0;" x1="20" x2="274" y1="212.0938" y2="212.0938"/><text fill="#000000" font-family="sans-serif" font-size="11" font-weight="bold" lengthAdjust="spacing" textLength="79" x="25" y="222.3042">[Invalid PIN]</text><polygon fill="#181818" points="87.5,243.0313,77.5,247.0313,87.5,251.0313,83.5,247.0313" style="stroke:#181818;stroke-width:1.0;"/><line style="stroke:#181818;stroke-width:1.0;stroke-dasharray:2.0,2.0;" x1="81.5" x2="240.5" y1="247.0313" y2="247.0313"/><text fill="#000000" font-family="sans-serif" font-size="13" lengthAdjust="spacing" textLength="65" x="93.5" y="241.9653">Invalid PIN</text><path d="M10,276.0313 L88,276.0313 L88,283.1641 L78,293.1641 L10,293.1641 L10,276.0313 " fill="#EEEEEE" style="stroke:#000000;stroke-width:1.5;"/><rect fill="none" height="179.6016" style="stroke:#000000;stroke-width:1.5;" width="483.5" x="10" y="276.0313"/><text fill="#000000" font-family="sans-serif" font-size="13" font-weight="bold" lengthAdjust="spacing" textLength="33" x="25" y="289.0981">loop</text><text fill="#000000" font-family="sans-serif" font-size="11" font-weight="bold" lengthAdjust="spacing" textLength="195" x="103" y="288.2417">[until valid Amount provided]</text><polygon fill="#181818" points="87.5,310.2969,77.5,314.2969,87.5,318.2969,83.5,314.2969" style="stroke:#181818;stroke-width:1.0;"/><line style="stroke:#181818;stroke-width:1.0;stroke-dasharray:2.0,2.0;" x1="81.5" x2="240.5" y1="314.2969" y2="314.2969"/><text fill="#000000" font-family="sans-serif" font-size="13" lengthAdjust="spacing" textLength="115" x="93.5" y="309.231">Select Withdrawal</text><polygon fill="#181818" points="229.5,339.4297,239.5,343.4297,229.5,347.4297,233.5,343.4297" style="stroke:#181818;stroke-width:1.0;"/><line style="stroke:#181818;stroke-width:1.0;stroke-dasharray:2.0,2.0;" x1="76.5" x2="235.5" y1="343.4297" y2="343.4297"/><text fill="#000000" font-family="sans-serif" font-size="13" lengthAdjust="spacing" textLength="89" x="83.5" y="338.3638">Enter Amount</text><path d="M20,358.4297 L86,358.4297 L86,365.5625 L76,375.5625 L20,375.5625 L20,358.4297 " fill="#EEEEEE" style="stroke:#000000;stroke-width:1.5;"/><rect fill="none" height="90.2031" style="stroke:#000000;stroke-width:1.5;" width="463.5" x="20" y="358.4297"/><text fill="#000000" font-family="sans-serif" font-size="13" font-weight="bold" lengthAdjust="spacing" textLength="21" x="35" y="371.4966">alt</text><text fill="#000000" font-family="sans-serif" font-size="11" font-weight="bold" lengthAdjust="spacing" textLength="100" x="101" y="370.6401">[Valid Amount]</text><polygon fill="#181818" points="252.5,392.6953,242.5,396.6953,252.5,400.6953,248.5,396.6953" style="stroke:#181818;stroke-width:1.0;"/><line style="stroke:#181818;stroke-width:1.0;stroke-dasharray:2.0,2.0;" x1="246.5" x2="413.5" y1="396.6953" y2="396.6953"/><text fill="#000000" font-family="sans-serif" font-size="13" lengthAdjust="spacing" textLength="95" x="258.5" y="391.6294">Dispense Cash</text><line style="stroke:#000000;stroke-width:1.0;stroke-dasharray:2.0,2.0;" x1="20" x2="483.5" y1="405.6953" y2="405.6953"/><text fill="#000000" font-family="sans-serif" font-size="11" font-weight="bold" lengthAdjust="spacing" textLength="110" x="25" y="415.9058">[Invalid Amount]</text><polygon fill="#181818" points="87.5,436.6328,77.5,440.6328,87.5,444.6328,83.5,440.6328" style="stroke:#181818;stroke-width:1.0;"/><line style="stroke:#181818;stroke-width:1.0;stroke-dasharray:2.0,2.0;" x1="81.5" x2="240.5" y1="440.6328" y2="440.6328"/><text fill="#000000" font-family="sans-serif" font-size="13" lengthAdjust="spacing" textLength="96" x="93.5" y="435.5669">Invalid Amount</text><polygon fill="#181818" points="252.5,479.7656,242.5,483.7656,252.5,487.7656,248.5,483.7656" style="stroke:#181818;stroke-width:1.0;"/><line style="stroke:#181818;stroke-width:1.0;stroke-dasharray:2.0,2.0;" x1="246.5" x2="413.5" y1="483.7656" y2="483.7656"/><text fill="#000000" font-family="sans-serif" font-size="13" lengthAdjust="spacing" textLength="149" x="258.5" y="478.6997">Transaction Completed</text><polygon fill="#181818" points="87.5,508.8984,77.5,512.8984,87.5,516.8984,83.5,512.8984" style="stroke:#181818;stroke-width:1.0;"/><line style="stroke:#181818;stroke-width:1.0;stroke-dasharray:2.0,2.0;" x1="81.5" x2="240.5" y1="512.8984" y2="512.8984"/><text fill="#000000" font-family="sans-serif" font-size="13" lengthAdjust="spacing" textLength="79" x="93.5" y="507.8325">Collect Cash</text><polygon fill="#181818" points="229.5,538.0313,239.5,542.0313,229.5,546.0313,233.5,542.0313" style="stroke:#181818;stroke-width:1.0;"/><line style="stroke:#181818;stroke-width:1.0;stroke-dasharray:2.0,2.0;" x1="76.5" x2="235.5" y1="542.0313" y2="542.0313"/><text fill="#000000" font-family="sans-serif" font-size="13" lengthAdjust="spacing" textLength="141" x="83.5" y="536.9653">Complete Transaction</text><polygon fill="#181818" points="87.5,567.1641,77.5,571.1641,87.5,575.1641,83.5,571.1641" style="stroke:#181818;stroke-width:1.0;"/><line style="stroke:#181818;stroke-width:1.0;stroke-dasharray:2.0,2.0;" x1="81.5" x2="240.5" y1="571.1641" y2="571.1641"/><text fill="#000000" font-family="sans-serif" font-size="13" lengthAdjust="spacing" textLength="81" x="93.5" y="566.0981">Print Receipt</text><!--SRC=[ZP9DRiCW48Ntd68ka0jaKSbrlOYgf97jfCiAmKX18a1Wubu_OqTENPl-8B40VUyDRuOW8nbbWdG4vQ5ftxPLBSBaicYttyxFnUxrewdg8tDYLC1gzTIJQzYuX96jPDH2MEy3N1qP2vsqHiD-iuCGVMSqQW6yM3DeHwCrr7YvOg8U7GXOrgWSONm0qX8SH_Ux96lSrowKma2e6HX8j0dvoTq_v7CAdHRzNeOipfwFV-LiqA8YU3Tqqb5-IYj-2tltdEMTN0vhCfel_Oj90NaeF99qoiMUkVoSV08-mcTBjb6w91KPxw3qvs2HMox4qhdqTcX2_xJSPnh5KyUSppuQRdYD2asW6m00]--></g></svg>