<?xml version="1.0" encoding="us-ascii" standalone="no"?><svg xmlns="http://www.w3.org/2000/svg" xmlns:xlink="http://www.w3.org/1999/xlink" contentStyleType="text/css" height="598px" preserveAspectRatio="none" style="width:559px;height:598px;background:#FFFFFF;" version="1.1" viewBox="0 0 559 598" width="559px" zoomAndPan="magnify"><defs/><g><!--class IOrder--><g id="elem_IOrder"><rect codeLine="1" fill="#F1F1F1" height="64.2969" id="IOrder" rx="2.5" ry="2.5" style="stroke:#181818;stroke-width:0.5;" width="241" x="48" y="15.5"/><ellipse cx="141.75" cy="31.5" fill="#B4A7E5" rx="11" ry="11" style="stroke:#181818;stroke-width:1.0;"/><path d="M142.7031,28.2813 L144.4219,28.2813 C144.8125,28.2813 145,28.25 145.125,28.1719 C145.3906,28.0156 145.5313,27.7344 145.5313,27.4375 C145.5313,27.1719 145.4219,26.9063 145.1875,26.7344 C145.0156,26.625 144.875,26.5938 144.4219,26.5938 L139.2813,26.5938 C138.8438,26.5938 138.7188,26.6094 138.5625,26.7031 C138.3125,26.8594 138.1563,27.1563 138.1563,27.4375 C138.1563,27.7188 138.2969,27.9688 138.5156,28.1406 C138.6719,28.25 138.8594,28.2813 139.2813,28.2813 L141,28.2813 L141,34.7969 L139.2813,34.7969 C138.8438,34.7969 138.7188,34.8125 138.5625,34.9219 C138.3125,35.0781 138.1563,35.3594 138.1563,35.6563 C138.1563,35.9063 138.2969,36.1719 138.5156,36.3281 C138.6719,36.4531 138.875,36.5 139.2813,36.5 L144.4219,36.5 C145.1719,36.5 145.5313,36.2188 145.5313,35.6563 C145.5313,35.375 145.4219,35.125 145.1875,34.9531 C145.0156,34.8281 144.875,34.7969 144.4219,34.7969 L142.7031,34.7969 L142.7031,28.2813 Z " fill="#000000"/><text fill="#000000" font-family="sans-serif" font-size="14" font-style="italic" lengthAdjust="spacing" textLength="45" x="162.25" y="36.3467">IOrder</text><line style="stroke:#181818;stroke-width:0.5;" x1="49" x2="288" y1="47.5" y2="47.5"/><line style="stroke:#181818;stroke-width:0.5;" x1="49" x2="288" y1="55.5" y2="55.5"/><ellipse cx="59" cy="69.1484" fill="#84BE84" rx="3" ry="3" style="stroke:#038048;stroke-width:1.0;"/><text fill="#000000" font-family="sans-serif" font-size="14" lengthAdjust="spacing" textLength="215" x="68" y="72.4951">fulfillOrder(order: Order): void</text></g><!--class Item--><g id="elem_Item"><rect codeLine="5" fill="#F1F1F1" height="80.5938" id="Item" rx="2.5" ry="2.5" style="stroke:#181818;stroke-width:0.5;" width="147" x="95" y="511"/><ellipse cx="147.25" cy="527" fill="#ADD1B2" rx="11" ry="11" style="stroke:#181818;stroke-width:1.0;"/><path d="M149.5938,522.6719 C148.6563,522.2344 148.0625,522.0938 147.1875,522.0938 C144.5625,522.0938 142.5625,524.1719 142.5625,526.8906 L142.5625,528.0156 C142.5625,530.5938 144.6719,532.4844 147.5625,532.4844 C148.7813,532.4844 149.9375,532.1875 150.6875,531.6406 C151.2656,531.2344 151.5938,530.7813 151.5938,530.3906 C151.5938,529.9375 151.2031,529.5469 150.7344,529.5469 C150.5156,529.5469 150.3125,529.625 150.125,529.8125 C149.6719,530.2969 149.6719,530.2969 149.4844,530.3906 C149.0625,530.6563 148.375,530.7813 147.6094,530.7813 C145.5625,530.7813 144.2656,529.6875 144.2656,527.9844 L144.2656,526.8906 C144.2656,525.1094 145.5156,523.7969 147.25,523.7969 C147.8281,523.7969 148.4375,523.9531 148.9063,524.2031 C149.3906,524.4844 149.5625,524.7031 149.6563,525.1094 C149.7188,525.5156 149.75,525.6406 149.8906,525.7656 C150.0313,525.9063 150.2656,526.0156 150.4844,526.0156 C150.75,526.0156 151.0156,525.875 151.1875,525.6563 C151.2969,525.5 151.3281,525.3125 151.3281,524.8906 L151.3281,523.4688 C151.3281,523.0313 151.3125,522.9063 151.2188,522.75 C151.0625,522.4844 150.7813,522.3438 150.4844,522.3438 C150.1875,522.3438 149.9844,522.4375 149.7656,522.75 L149.5938,522.6719 Z " fill="#000000"/><text fill="#000000" font-family="sans-serif" font-size="14" lengthAdjust="spacing" textLength="34" x="167.75" y="531.8467">Item</text><line style="stroke:#181818;stroke-width:0.5;" x1="96" x2="241" y1="543" y2="543"/><rect fill="none" height="6" style="stroke:#C82930;stroke-width:1.0;" width="6" x="103" y="553.6484"/><text fill="#000000" font-family="sans-serif" font-size="14" lengthAdjust="spacing" textLength="77" x="115" y="559.9951">sku: String</text><line style="stroke:#181818;stroke-width:0.5;" x1="96" x2="241" y1="567.2969" y2="567.2969"/><ellipse cx="106" cy="580.9453" fill="#84BE84" rx="3" ry="3" style="stroke:#038048;stroke-width:1.0;"/><text fill="#000000" font-family="sans-serif" font-size="14" lengthAdjust="spacing" textLength="121" x="115" y="584.292">Item(sku: String)</text></g><!--class Order--><g id="elem_Order"><rect codeLine="10" fill="#F1F1F1" height="80.5938" id="Order" rx="2.5" ry="2.5" style="stroke:#181818;stroke-width:0.5;" width="228" x="324.5" y="7"/><ellipse cx="413.75" cy="23" fill="#ADD1B2" rx="11" ry="11" style="stroke:#181818;stroke-width:1.0;"/><path d="M416.0938,18.6719 C415.1563,18.2344 414.5625,18.0938 413.6875,18.0938 C411.0625,18.0938 409.0625,20.1719 409.0625,22.8906 L409.0625,24.0156 C409.0625,26.5938 411.1719,28.4844 414.0625,28.4844 C415.2813,28.4844 416.4375,28.1875 417.1875,27.6406 C417.7656,27.2344 418.0938,26.7813 418.0938,26.3906 C418.0938,25.9375 417.7031,25.5469 417.2344,25.5469 C417.0156,25.5469 416.8125,25.625 416.625,25.8125 C416.1719,26.2969 416.1719,26.2969 415.9844,26.3906 C415.5625,26.6563 414.875,26.7813 414.1094,26.7813 C412.0625,26.7813 410.7656,25.6875 410.7656,23.9844 L410.7656,22.8906 C410.7656,21.1094 412.0156,19.7969 413.75,19.7969 C414.3281,19.7969 414.9375,19.9531 415.4063,20.2031 C415.8906,20.4844 416.0625,20.7031 416.1563,21.1094 C416.2188,21.5156 416.25,21.6406 416.3906,21.7656 C416.5313,21.9063 416.7656,22.0156 416.9844,22.0156 C417.25,22.0156 417.5156,21.875 417.6875,21.6563 C417.7969,21.5 417.8281,21.3125 417.8281,20.8906 L417.8281,19.4688 C417.8281,19.0313 417.8125,18.9063 417.7188,18.75 C417.5625,18.4844 417.2813,18.3438 416.9844,18.3438 C416.6875,18.3438 416.4844,18.4375 416.2656,18.75 L416.0938,18.6719 Z " fill="#000000"/><text fill="#000000" font-family="sans-serif" font-size="14" lengthAdjust="spacing" textLength="41" x="434.25" y="27.8467">Order</text><line style="stroke:#181818;stroke-width:0.5;" x1="325.5" x2="551.5" y1="39" y2="39"/><rect fill="none" height="6" style="stroke:#C82930;stroke-width:1.0;" width="6" x="332.5" y="49.6484"/><text fill="#000000" font-family="sans-serif" font-size="14" lengthAdjust="spacing" textLength="151" x="344.5" y="55.9951">itemList: List&lt;Item&gt;</text><line style="stroke:#181818;stroke-width:0.5;" x1="325.5" x2="551.5" y1="63.2969" y2="63.2969"/><ellipse cx="335.5" cy="76.9453" fill="#84BE84" rx="3" ry="3" style="stroke:#038048;stroke-width:1.0;"/><text fill="#000000" font-family="sans-serif" font-size="14" lengthAdjust="spacing" textLength="202" x="344.5" y="80.292">Order(itemList: List&lt;Item&gt;)</text></g><!--class Warehouse--><g id="elem_Warehouse"><rect codeLine="15" fill="#F1F1F1" height="145.7813" id="Warehouse" rx="2.5" ry="2.5" style="stroke:#181818;stroke-width:0.5;" width="323" x="7" y="305"/><ellipse cx="124.75" cy="321" fill="#ADD1B2" rx="11" ry="11" style="stroke:#181818;stroke-width:1.0;"/><path d="M127.0938,316.6719 C126.1563,316.2344 125.5625,316.0938 124.6875,316.0938 C122.0625,316.0938 120.0625,318.1719 120.0625,320.8906 L120.0625,322.0156 C120.0625,324.5938 122.1719,326.4844 125.0625,326.4844 C126.2813,326.4844 127.4375,326.1875 128.1875,325.6406 C128.7656,325.2344 129.0938,324.7813 129.0938,324.3906 C129.0938,323.9375 128.7031,323.5469 128.2344,323.5469 C128.0156,323.5469 127.8125,323.625 127.625,323.8125 C127.1719,324.2969 127.1719,324.2969 126.9844,324.3906 C126.5625,324.6563 125.875,324.7813 125.1094,324.7813 C123.0625,324.7813 121.7656,323.6875 121.7656,321.9844 L121.7656,320.8906 C121.7656,319.1094 123.0156,317.7969 124.75,317.7969 C125.3281,317.7969 125.9375,317.9531 126.4063,318.2031 C126.8906,318.4844 127.0625,318.7031 127.1563,319.1094 C127.2188,319.5156 127.25,319.6406 127.3906,319.7656 C127.5313,319.9063 127.7656,320.0156 127.9844,320.0156 C128.25,320.0156 128.5156,319.875 128.6875,319.6563 C128.7969,319.5 128.8281,319.3125 128.8281,318.8906 L128.8281,317.4688 C128.8281,317.0313 128.8125,316.9063 128.7188,316.75 C128.5625,316.4844 128.2813,316.3438 127.9844,316.3438 C127.6875,316.3438 127.4844,316.4375 127.2656,316.75 L127.0938,316.6719 Z " fill="#000000"/><text fill="#000000" font-family="sans-serif" font-size="14" lengthAdjust="spacing" textLength="79" x="145.25" y="325.8467">Warehouse</text><line style="stroke:#181818;stroke-width:0.5;" x1="8" x2="329" y1="337" y2="337"/><rect fill="none" height="6" style="stroke:#C82930;stroke-width:1.0;" width="6" x="15" y="347.6484"/><text fill="#000000" font-family="sans-serif" font-size="14" lengthAdjust="spacing" textLength="248" x="27" y="353.9951">stock: Hashtable&lt;String, Integer&gt;</text><rect fill="none" height="6" style="stroke:#C82930;stroke-width:1.0;" width="6" x="15" y="363.9453"/><text fill="#000000" font-family="sans-serif" font-size="14" lengthAdjust="spacing" textLength="108" x="27" y="370.292">address: String</text><line style="stroke:#181818;stroke-width:0.5;" x1="8" x2="329" y1="377.5938" y2="377.5938"/><ellipse cx="18" cy="391.2422" fill="#84BE84" rx="3" ry="3" style="stroke:#038048;stroke-width:1.0;"/><text fill="#000000" font-family="sans-serif" font-size="14" lengthAdjust="spacing" textLength="197" x="27" y="394.5889">Warehouse(address: String)</text><ellipse cx="18" cy="407.5391" fill="#84BE84" rx="3" ry="3" style="stroke:#038048;stroke-width:1.0;"/><text fill="#000000" font-family="sans-serif" font-size="14" lengthAdjust="spacing" textLength="297" x="27" y="410.8857">stockItem(sku: String, quantity: int): void</text><ellipse cx="18" cy="423.8359" fill="#84BE84" rx="3" ry="3" style="stroke:#038048;stroke-width:1.0;"/><text fill="#000000" font-family="sans-serif" font-size="14" lengthAdjust="spacing" textLength="215" x="27" y="427.1826">fulfillOrder(order: Order): void</text><ellipse cx="18" cy="440.1328" fill="#84BE84" rx="3" ry="3" style="stroke:#038048;stroke-width:1.0;"/><text fill="#000000" font-family="sans-serif" font-size="14" lengthAdjust="spacing" textLength="238" x="27" y="443.4795">currentInventory(item: Item): int</text></g><!--class OrderFulfillment--><g id="elem_OrderFulfillment"><rect codeLine="24" fill="#F1F1F1" height="96.8906" id="OrderFulfillment" rx="2.5" ry="2.5" style="stroke:#181818;stroke-width:0.5;" width="373" x="102" y="148"/><ellipse cx="225.25" cy="164" fill="#ADD1B2" rx="11" ry="11" style="stroke:#181818;stroke-width:1.0;"/><path d="M227.5938,159.6719 C226.6563,159.2344 226.0625,159.0938 225.1875,159.0938 C222.5625,159.0938 220.5625,161.1719 220.5625,163.8906 L220.5625,165.0156 C220.5625,167.5938 222.6719,169.4844 225.5625,169.4844 C226.7813,169.4844 227.9375,169.1875 228.6875,168.6406 C229.2656,168.2344 229.5938,167.7813 229.5938,167.3906 C229.5938,166.9375 229.2031,166.5469 228.7344,166.5469 C228.5156,166.5469 228.3125,166.625 228.125,166.8125 C227.6719,167.2969 227.6719,167.2969 227.4844,167.3906 C227.0625,167.6563 226.375,167.7813 225.6094,167.7813 C223.5625,167.7813 222.2656,166.6875 222.2656,164.9844 L222.2656,163.8906 C222.2656,162.1094 223.5156,160.7969 225.25,160.7969 C225.8281,160.7969 226.4375,160.9531 226.9063,161.2031 C227.3906,161.4844 227.5625,161.7031 227.6563,162.1094 C227.7188,162.5156 227.75,162.6406 227.8906,162.7656 C228.0313,162.9063 228.2656,163.0156 228.4844,163.0156 C228.75,163.0156 229.0156,162.875 229.1875,162.6563 C229.2969,162.5 229.3281,162.3125 229.3281,161.8906 L229.3281,160.4688 C229.3281,160.0313 229.3125,159.9063 229.2188,159.75 C229.0625,159.4844 228.7813,159.3438 228.4844,159.3438 C228.1875,159.3438 227.9844,159.4375 227.7656,159.75 L227.5938,159.6719 Z " fill="#000000"/><text fill="#000000" font-family="sans-serif" font-size="14" lengthAdjust="spacing" textLength="118" x="245.75" y="168.8467">OrderFulfillment</text><line style="stroke:#181818;stroke-width:0.5;" x1="103" x2="474" y1="180" y2="180"/><rect fill="none" height="6" style="stroke:#C82930;stroke-width:1.0;" width="6" x="110" y="190.6484"/><text fill="#000000" font-family="sans-serif" font-size="14" lengthAdjust="spacing" textLength="219" x="122" y="196.9951">warehouses: List&lt;Warehouse&gt;</text><line style="stroke:#181818;stroke-width:0.5;" x1="103" x2="474" y1="204.2969" y2="204.2969"/><ellipse cx="113" cy="217.9453" fill="#84BE84" rx="3" ry="3" style="stroke:#038048;stroke-width:1.0;"/><text fill="#000000" font-family="sans-serif" font-size="14" lengthAdjust="spacing" textLength="347" x="122" y="221.292">OrderFulfillment(warehouses: List&lt;Warehouse&gt;)</text><ellipse cx="113" cy="234.2422" fill="#84BE84" rx="3" ry="3" style="stroke:#038048;stroke-width:1.0;"/><text fill="#000000" font-family="sans-serif" font-size="14" lengthAdjust="spacing" textLength="215" x="122" y="237.5889">fulfillOrder(order: Order): void</text></g><!--reverse link IOrder to Warehouse--><g id="link_IOrder_Warehouse"><path codeLine="30" d="M119.4294,92.2561 C101.3544,110.1791 94.1272,121.672 84.5,148 C69.6944,188.489 72.4467,203.608 84.5,245 C90.5377,265.734 100.9263,286.32 112.381,304.85 " fill="none" id="IOrder-backto-Warehouse" style="stroke:#181818;stroke-width:1.0;"/><polygon fill="none" points="132.211,79.582,115.2048,87.9955,123.6541,96.5166,132.211,79.582" style="stroke:#181818;stroke-width:1.0;"/></g><!--reverse link IOrder to OrderFulfillment--><g id="link_IOrder_OrderFulfillment"><path codeLine="31" d="M205.3321,93.6187 C221.5001,113.4237 231.362,125.505 249.617,147.868 " fill="none" id="IOrder-backto-OrderFulfillment" style="stroke:#181818;stroke-width:1.0;"/><polygon fill="none" points="193.949,79.675,200.6842,97.413,209.9799,89.8243,193.949,79.675" style="stroke:#181818;stroke-width:1.0;"/></g><!--reverse link OrderFulfillment to Warehouse--><g id="link_OrderFulfillment_Warehouse"><path codeLine="32" d="M249.988,255.1072 C237.768,273.3872 230.201,284.706 216.779,304.783 " fill="none" id="OrderFulfillment-backto-Warehouse" style="stroke:#181818;stroke-width:1.0;"/><polygon fill="none" points="256.657,245.131,249.9971,247.8961,249.988,255.1072,256.6479,252.3421,256.657,245.131" style="stroke:#181818;stroke-width:1.0;"/></g><!--reverse link Warehouse to Item--><g id="link_Warehouse_Item"><path codeLine="33" d="M168.5,463.234 C168.5,483.557 168.5,492.9182 168.5,510.5968 " fill="none" id="Warehouse-backto-Item" style="stroke:#181818;stroke-width:1.0;"/><polygon fill="none" points="168.5,451.234,164.5,457.234,168.5,463.234,172.5,457.234,168.5,451.234" style="stroke:#181818;stroke-width:1.0;"/><text fill="#000000" font-family="sans-serif" font-size="13" lengthAdjust="spacing" textLength="8" x="160.1313" y="470.7598">1</text><text fill="#000000" font-family="sans-serif" font-size="13" lengthAdjust="spacing" textLength="7" x="160.9422" y="499.9924">*</text></g><!--SRC=[ZLAxJiGm4Epz5QjKCPmBMYkYH4H2eg2WDidcphgSBVmuT0B-7SVEmma8dOkLlBipkpEsL0vD9ng4-jcqQE2JG3YtdUyxsVSnL-eXSeWNok6iPKk-2MbwOItK3ayZYjcZv_3YZ5JxH3CKoonB5rm-ZidGzoIjup34Qe3T9uQqmL_rZEjL63neRt5UnEdcoE5Hs8CJRprMQVmEwg1tZoQHCz6s1grTxpoJbPioJVN8lHMsWtSlb9Fkma4gDxbqdPUng_76e7ArEeUepILgvj5U6ZatrZqarbFedbH_J9lRqQTPIcvc1Yp_GT3hFyBuTQelnfQdM6MtWyal2Ng5NHwqk2jYhRWfeXS_]--></g></svg>