<?xml version="1.0" encoding="us-ascii" standalone="no"?><svg xmlns="http://www.w3.org/2000/svg" xmlns:xlink="http://www.w3.org/1999/xlink" contentStyleType="text/css" height="407px" preserveAspectRatio="none" style="width:812px;height:407px;background:#FFFFFF;" version="1.1" viewBox="0 0 812 407" width="812px" zoomAndPan="magnify"><defs/><g><!--class WebPage--><g id="elem_WebPage"><rect codeLine="1" fill="#F1F1F1" height="64.2969" id="WebPage" rx="2.5" ry="2.5" style="stroke:#181818;stroke-width:0.5;" width="99" x="486" y="7"/><ellipse cx="501" cy="23" fill="#B4A7E5" rx="11" ry="11" style="stroke:#181818;stroke-width:1.0;"/><path d="M501.9531,19.7813 L503.6719,19.7813 C504.0625,19.7813 504.25,19.75 504.375,19.6719 C504.6406,19.5156 504.7813,19.2344 504.7813,18.9375 C504.7813,18.6719 504.6719,18.4063 504.4375,18.2344 C504.2656,18.125 504.125,18.0938 503.6719,18.0938 L498.5313,18.0938 C498.0938,18.0938 497.9688,18.1094 497.8125,18.2031 C497.5625,18.3594 497.4063,18.6563 497.4063,18.9375 C497.4063,19.2188 497.5469,19.4688 497.7656,19.6406 C497.9219,19.75 498.1094,19.7813 498.5313,19.7813 L500.25,19.7813 L500.25,26.2969 L498.5313,26.2969 C498.0938,26.2969 497.9688,26.3125 497.8125,26.4219 C497.5625,26.5781 497.4063,26.8594 497.4063,27.1563 C497.4063,27.4063 497.5469,27.6719 497.7656,27.8281 C497.9219,27.9531 498.125,28 498.5313,28 L503.6719,28 C504.4219,28 504.7813,27.7188 504.7813,27.1563 C504.7813,26.875 504.6719,26.625 504.4375,26.4531 C504.2656,26.3281 504.125,26.2969 503.6719,26.2969 L501.9531,26.2969 L501.9531,19.7813 Z " fill="#000000"/><text fill="#000000" font-family="sans-serif" font-size="14" font-style="italic" lengthAdjust="spacing" textLength="67" x="515" y="27.8467">WebPage</text><line style="stroke:#181818;stroke-width:0.5;" x1="487" x2="584" y1="39" y2="39"/><line style="stroke:#181818;stroke-width:0.5;" x1="487" x2="584" y1="47" y2="47"/><ellipse cx="497" cy="60.6484" fill="#84BE84" rx="3" ry="3" style="stroke:#038048;stroke-width:1.0;"/><text fill="#000000" font-family="sans-serif" font-size="14" font-style="italic" lengthAdjust="spacing" textLength="60" x="506" y="63.9951">display()</text></g><!--class WebPageDecorator--><g id="elem_WebPageDecorator"><rect codeLine="5" fill="#F1F1F1" height="96.8906" id="WebPageDecorator" rx="2.5" ry="2.5" style="stroke:#181818;stroke-width:0.5;" width="316" x="241.5" y="139"/><ellipse cx="324.75" cy="155" fill="#ADD1B2" rx="11" ry="11" style="stroke:#181818;stroke-width:1.0;"/><path d="M327.0938,150.6719 C326.1563,150.2344 325.5625,150.0938 324.6875,150.0938 C322.0625,150.0938 320.0625,152.1719 320.0625,154.8906 L320.0625,156.0156 C320.0625,158.5938 322.1719,160.4844 325.0625,160.4844 C326.2813,160.4844 327.4375,160.1875 328.1875,159.6406 C328.7656,159.2344 329.0938,158.7813 329.0938,158.3906 C329.0938,157.9375 328.7031,157.5469 328.2344,157.5469 C328.0156,157.5469 327.8125,157.625 327.625,157.8125 C327.1719,158.2969 327.1719,158.2969 326.9844,158.3906 C326.5625,158.6563 325.875,158.7813 325.1094,158.7813 C323.0625,158.7813 321.7656,157.6875 321.7656,155.9844 L321.7656,154.8906 C321.7656,153.1094 323.0156,151.7969 324.75,151.7969 C325.3281,151.7969 325.9375,151.9531 326.4063,152.2031 C326.8906,152.4844 327.0625,152.7031 327.1563,153.1094 C327.2188,153.5156 327.25,153.6406 327.3906,153.7656 C327.5313,153.9063 327.7656,154.0156 327.9844,154.0156 C328.25,154.0156 328.5156,153.875 328.6875,153.6563 C328.7969,153.5 328.8281,153.3125 328.8281,152.8906 L328.8281,151.4688 C328.8281,151.0313 328.8125,150.9063 328.7188,150.75 C328.5625,150.4844 328.2813,150.3438 327.9844,150.3438 C327.6875,150.3438 327.4844,150.4375 327.2656,150.75 L327.0938,150.6719 Z " fill="#000000"/><text fill="#000000" font-family="sans-serif" font-size="14" lengthAdjust="spacing" textLength="141" x="345.25" y="159.8467">WebPageDecorator</text><line style="stroke:#181818;stroke-width:0.5;" x1="242.5" x2="556.5" y1="171" y2="171"/><rect fill="none" height="6" style="stroke:#C82930;stroke-width:1.0;" width="6" x="249.5" y="181.6484"/><text fill="#000000" font-family="sans-serif" font-size="14" lengthAdjust="spacing" textLength="113" x="261.5" y="187.9951">page: WebPage</text><line style="stroke:#181818;stroke-width:0.5;" x1="242.5" x2="556.5" y1="195.2969" y2="195.2969"/><ellipse cx="252.5" cy="208.9453" fill="#84BE84" rx="3" ry="3" style="stroke:#038048;stroke-width:1.0;"/><text fill="#000000" font-family="sans-serif" font-size="14" font-style="italic" lengthAdjust="spacing" textLength="290" x="261.5" y="212.292">WebPageDecorator(webpage: WebPage)</text><ellipse cx="252.5" cy="225.2422" fill="#84BE84" rx="3" ry="3" style="stroke:#038048;stroke-width:1.0;"/><text fill="#000000" font-family="sans-serif" font-size="14" font-style="italic" lengthAdjust="spacing" textLength="60" x="261.5" y="228.5889">display()</text></g><!--class AuthorizedWebPage--><g id="elem_AuthorizedWebPage"><rect codeLine="11" fill="#F1F1F1" height="96.8906" id="AuthorizedWebPage" rx="2.5" ry="2.5" style="stroke:#181818;stroke-width:0.5;" width="369" x="7" y="304"/><ellipse cx="113.75" cy="320" fill="#ADD1B2" rx="11" ry="11" style="stroke:#181818;stroke-width:1.0;"/><path d="M116.0938,315.6719 C115.1563,315.2344 114.5625,315.0938 113.6875,315.0938 C111.0625,315.0938 109.0625,317.1719 109.0625,319.8906 L109.0625,321.0156 C109.0625,323.5938 111.1719,325.4844 114.0625,325.4844 C115.2813,325.4844 116.4375,325.1875 117.1875,324.6406 C117.7656,324.2344 118.0938,323.7813 118.0938,323.3906 C118.0938,322.9375 117.7031,322.5469 117.2344,322.5469 C117.0156,322.5469 116.8125,322.625 116.625,322.8125 C116.1719,323.2969 116.1719,323.2969 115.9844,323.3906 C115.5625,323.6563 114.875,323.7813 114.1094,323.7813 C112.0625,323.7813 110.7656,322.6875 110.7656,320.9844 L110.7656,319.8906 C110.7656,318.1094 112.0156,316.7969 113.75,316.7969 C114.3281,316.7969 114.9375,316.9531 115.4063,317.2031 C115.8906,317.4844 116.0625,317.7031 116.1563,318.1094 C116.2188,318.5156 116.25,318.6406 116.3906,318.7656 C116.5313,318.9063 116.7656,319.0156 116.9844,319.0156 C117.25,319.0156 117.5156,318.875 117.6875,318.6563 C117.7969,318.5 117.8281,318.3125 117.8281,317.8906 L117.8281,316.4688 C117.8281,316.0313 117.8125,315.9063 117.7188,315.75 C117.5625,315.4844 117.2813,315.3438 116.9844,315.3438 C116.6875,315.3438 116.4844,315.4375 116.2656,315.75 L116.0938,315.6719 Z " fill="#000000"/><text fill="#000000" font-family="sans-serif" font-size="14" lengthAdjust="spacing" textLength="147" x="134.25" y="324.8467">AuthorizedWebPage</text><line style="stroke:#181818;stroke-width:0.5;" x1="8" x2="375" y1="336" y2="336"/><line style="stroke:#181818;stroke-width:0.5;" x1="8" x2="375" y1="344" y2="344"/><ellipse cx="18" cy="357.6484" fill="#84BE84" rx="3" ry="3" style="stroke:#038048;stroke-width:1.0;"/><text fill="#000000" font-family="sans-serif" font-size="14" lengthAdjust="spacing" textLength="343" x="27" y="360.9951">AuthorizedWebPage(decoratedPage: WebPage)</text><ellipse cx="18" cy="373.9453" fill="#84BE84" rx="3" ry="3" style="stroke:#038048;stroke-width:1.0;"/><text fill="#000000" font-family="sans-serif" font-size="14" lengthAdjust="spacing" textLength="118" x="27" y="377.292">authorizedUser()</text><ellipse cx="18" cy="390.2422" fill="#84BE84" rx="3" ry="3" style="stroke:#038048;stroke-width:1.0;"/><text fill="#000000" font-family="sans-serif" font-size="14" lengthAdjust="spacing" textLength="60" x="27" y="393.5889">display()</text></g><!--class AuthenticatedWebPage--><g id="elem_AuthenticatedWebPage"><rect codeLine="17" fill="#F1F1F1" height="96.8906" id="AuthenticatedWebPage" rx="2.5" ry="2.5" style="stroke:#181818;stroke-width:0.5;" width="394" x="411.5" y="304"/><ellipse cx="518.25" cy="320" fill="#ADD1B2" rx="11" ry="11" style="stroke:#181818;stroke-width:1.0;"/><path d="M520.5938,315.6719 C519.6563,315.2344 519.0625,315.0938 518.1875,315.0938 C515.5625,315.0938 513.5625,317.1719 513.5625,319.8906 L513.5625,321.0156 C513.5625,323.5938 515.6719,325.4844 518.5625,325.4844 C519.7813,325.4844 520.9375,325.1875 521.6875,324.6406 C522.2656,324.2344 522.5938,323.7813 522.5938,323.3906 C522.5938,322.9375 522.2031,322.5469 521.7344,322.5469 C521.5156,322.5469 521.3125,322.625 521.125,322.8125 C520.6719,323.2969 520.6719,323.2969 520.4844,323.3906 C520.0625,323.6563 519.375,323.7813 518.6094,323.7813 C516.5625,323.7813 515.2656,322.6875 515.2656,320.9844 L515.2656,319.8906 C515.2656,318.1094 516.5156,316.7969 518.25,316.7969 C518.8281,316.7969 519.4375,316.9531 519.9063,317.2031 C520.3906,317.4844 520.5625,317.7031 520.6563,318.1094 C520.7188,318.5156 520.75,318.6406 520.8906,318.7656 C521.0313,318.9063 521.2656,319.0156 521.4844,319.0156 C521.75,319.0156 522.0156,318.875 522.1875,318.6563 C522.2969,318.5 522.3281,318.3125 522.3281,317.8906 L522.3281,316.4688 C522.3281,316.0313 522.3125,315.9063 522.2188,315.75 C522.0625,315.4844 521.7813,315.3438 521.4844,315.3438 C521.1875,315.3438 520.9844,315.4375 520.7656,315.75 L520.5938,315.6719 Z " fill="#000000"/><text fill="#000000" font-family="sans-serif" font-size="14" lengthAdjust="spacing" textLength="172" x="538.75" y="324.8467">AuthenticatedWebPage</text><line style="stroke:#181818;stroke-width:0.5;" x1="412.5" x2="804.5" y1="336" y2="336"/><line style="stroke:#181818;stroke-width:0.5;" x1="412.5" x2="804.5" y1="344" y2="344"/><ellipse cx="422.5" cy="357.6484" fill="#84BE84" rx="3" ry="3" style="stroke:#038048;stroke-width:1.0;"/><text fill="#000000" font-family="sans-serif" font-size="14" lengthAdjust="spacing" textLength="368" x="431.5" y="360.9951">AuthenticatedWebPage(decoratedPage: WebPage)</text><ellipse cx="422.5" cy="373.9453" fill="#84BE84" rx="3" ry="3" style="stroke:#038048;stroke-width:1.0;"/><text fill="#000000" font-family="sans-serif" font-size="14" lengthAdjust="spacing" textLength="134" x="431.5" y="377.292">authenticateUser()</text><ellipse cx="422.5" cy="390.2422" fill="#84BE84" rx="3" ry="3" style="stroke:#038048;stroke-width:1.0;"/><text fill="#000000" font-family="sans-serif" font-size="14" lengthAdjust="spacing" textLength="60" x="431.5" y="393.5889">display()</text></g><!--class BasicWebPage--><g id="elem_BasicWebPage"><rect codeLine="23" fill="#F1F1F1" height="113.1875" id="BasicWebPage" rx="2.5" ry="2.5" style="stroke:#181818;stroke-width:0.5;" width="157" x="593" y="131"/><ellipse cx="617" cy="147" fill="#ADD1B2" rx="11" ry="11" style="stroke:#181818;stroke-width:1.0;"/><path d="M619.3438,142.6719 C618.4063,142.2344 617.8125,142.0938 616.9375,142.0938 C614.3125,142.0938 612.3125,144.1719 612.3125,146.8906 L612.3125,148.0156 C612.3125,150.5938 614.4219,152.4844 617.3125,152.4844 C618.5313,152.4844 619.6875,152.1875 620.4375,151.6406 C621.0156,151.2344 621.3438,150.7813 621.3438,150.3906 C621.3438,149.9375 620.9531,149.5469 620.4844,149.5469 C620.2656,149.5469 620.0625,149.625 619.875,149.8125 C619.4219,150.2969 619.4219,150.2969 619.2344,150.3906 C618.8125,150.6563 618.125,150.7813 617.3594,150.7813 C615.3125,150.7813 614.0156,149.6875 614.0156,147.9844 L614.0156,146.8906 C614.0156,145.1094 615.2656,143.7969 617,143.7969 C617.5781,143.7969 618.1875,143.9531 618.6563,144.2031 C619.1406,144.4844 619.3125,144.7031 619.4063,145.1094 C619.4688,145.5156 619.5,145.6406 619.6406,145.7656 C619.7813,145.9063 620.0156,146.0156 620.2344,146.0156 C620.5,146.0156 620.7656,145.875 620.9375,145.6563 C621.0469,145.5 621.0781,145.3125 621.0781,144.8906 L621.0781,143.4688 C621.0781,143.0313 621.0625,142.9063 620.9688,142.75 C620.8125,142.4844 620.5313,142.3438 620.2344,142.3438 C619.9375,142.3438 619.7344,142.4375 619.5156,142.75 L619.3438,142.6719 Z " fill="#000000"/><text fill="#000000" font-family="sans-serif" font-size="14" lengthAdjust="spacing" textLength="105" x="633" y="151.8467">BasicWebPage</text><line style="stroke:#181818;stroke-width:0.5;" x1="594" x2="749" y1="163" y2="163"/><rect fill="none" height="6" style="stroke:#C82930;stroke-width:1.0;" width="6" x="601" y="173.6484"/><text fill="#000000" font-family="sans-serif" font-size="14" lengthAdjust="spacing" textLength="87" x="613" y="179.9951">html: String</text><rect fill="none" height="6" style="stroke:#C82930;stroke-width:1.0;" width="6" x="601" y="189.9453"/><text fill="#000000" font-family="sans-serif" font-size="14" lengthAdjust="spacing" textLength="131" x="613" y="196.292">styleSheet: String</text><rect fill="none" height="6" style="stroke:#C82930;stroke-width:1.0;" width="6" x="601" y="206.2422"/><text fill="#000000" font-family="sans-serif" font-size="14" lengthAdjust="spacing" textLength="95" x="613" y="212.5889">script: String</text><line style="stroke:#181818;stroke-width:0.5;" x1="594" x2="749" y1="219.8906" y2="219.8906"/><ellipse cx="604" cy="233.5391" fill="#84BE84" rx="3" ry="3" style="stroke:#038048;stroke-width:1.0;"/><text fill="#000000" font-family="sans-serif" font-size="14" lengthAdjust="spacing" textLength="60" x="613" y="236.8857">display()</text></g><!--link WebPage to WebPageDecorator--><g id="link_WebPage_WebPageDecorator"><path codeLine="30" d="M506.658,71.069 C488.412,90.723 476.7083,103.331 456.0783,125.554 " fill="none" id="WebPage-to-WebPageDecorator" style="stroke:#181818;stroke-width:1.0;"/><polygon fill="none" points="443.832,138.746,460.4756,129.6362,451.681,121.4719,443.832,138.746" style="stroke:#181818;stroke-width:1.0;"/></g><!--reverse link WebPageDecorator to AuthorizedWebPage--><g id="link_WebPageDecorator_AuthorizedWebPage"><path codeLine="31" d="M324.6108,247.1874 C297.3908,268.5174 279.525,282.519 252.297,303.8563 " fill="none" id="WebPageDecorator-backto-AuthorizedWebPage" style="stroke:#181818;stroke-width:1.0;"/><polygon fill="none" points="338.779,236.085,320.91,242.4647,328.3116,251.9101,338.779,236.085" style="stroke:#181818;stroke-width:1.0;"/></g><!--reverse link WebPageDecorator to AuthenticatedWebPage--><g id="link_WebPageDecorator_AuthenticatedWebPage"><path codeLine="32" d="M474.707,247.1544 C502.058,268.4844 520.051,282.519 547.411,303.8563 " fill="none" id="WebPageDecorator-backto-AuthenticatedWebPage" style="stroke:#181818;stroke-width:1.0;"/><polygon fill="none" points="460.513,236.085,471.0172,251.8857,478.3968,242.423,460.513,236.085" style="stroke:#181818;stroke-width:1.0;"/></g><!--link WebPage to BasicWebPage--><g id="link_WebPage_BasicWebPage"><path codeLine="33" d="M564.342,71.069 C580.482,88.455 588.8406,97.4591 607.6616,117.7331 " fill="none" id="WebPage-to-BasicWebPage" style="stroke:#181818;stroke-width:1.0;"/><polygon fill="none" points="619.908,130.925,612.0589,113.651,603.2643,121.8153,619.908,130.925" style="stroke:#181818;stroke-width:1.0;"/></g><!--SRC=[ZP513e8m44NtFKMN4D8B46EYyG0anBWUoWXD44WxnY1mTp60iLJ5Bl_yFsyweqf2VGQ9_8H911dobl7XjP0OqY2fvq6gJ5r0u_ciPqmMOCniFg2iD52bfvIe1p6SgqwZPSgxOM8b_7_OkolbbLPtJEsH0wVWfIC9qyYb1F2o7mrgRrA_0B4a9P-TFZ2NjNNid5W1xy4eQGD5JfSYv35fLMQZOgWfCCuHQQ5BhMfRio5pPo6whNDHvfnuqmdXBl-7RxaN6_Z-kGS0]--></g></svg>